<?xml version="1.0" encoding="UTF-8" standalone="no"?>
<!-- Created with Inkscape (http://www.inkscape.org/) -->

<svg
   xmlns:dc="http://purl.org/dc/elements/1.1/"
   xmlns:cc="http://creativecommons.org/ns#"
   xmlns:rdf="http://www.w3.org/1999/02/22-rdf-syntax-ns#"
   xmlns:svg="http://www.w3.org/2000/svg"
   xmlns="http://www.w3.org/2000/svg"
   xmlns:sodipodi="http://sodipodi.sourceforge.net/DTD/sodipodi-0.dtd"
   xmlns:inkscape="http://www.inkscape.org/namespaces/inkscape"
   version="1.1"
   id="svg2"
   xml:space="preserve"
   width="218.61247"
   height="167.19868"
   viewBox="0 0 218.61248 167.19869"
   sodipodi:docname="wind.svg"
   inkscape:version="0.92.2 (5c3e80d, 2017-08-06)"><metadata
     id="metadata8"><rdf:RDF><cc:Work
         rdf:about=""><dc:format>image/svg+xml</dc:format><dc:type
           rdf:resource="http://purl.org/dc/dcmitype/StillImage" /><dc:title></dc:title></cc:Work></rdf:RDF></metadata><defs
     id="defs6" /><sodipodi:namedview
     pagecolor="#ffffff"
     bordercolor="#666666"
     borderopacity="1"
     objecttolerance="10"
     gridtolerance="10"
     guidetolerance="10"
     inkscape:pageopacity="0"
     inkscape:pageshadow="2"
     inkscape:window-width="1680"
     inkscape:window-height="1003"
     id="namedview4"
     showgrid="false"
     showguides="false"
     fit-margin-top="0"
     fit-margin-left="0"
     fit-margin-right="0"
     fit-margin-bottom="0"
     inkscape:snap-page="true"
     inkscape:snap-grids="false"
     inkscape:snap-to-guides="false"
     inkscape:snap-others="false"
     inkscape:object-nodes="false"
     inkscape:snap-nodes="true"
     inkscape:snap-global="false"
     inkscape:object-paths="false"
     inkscape:snap-bbox="true"
     inkscape:bbox-nodes="true"
     inkscape:zoom="26.795837"
     inkscape:cx="138.21085"
     inkscape:cy="58.387365"
     inkscape:window-x="0"
     inkscape:window-y="20"
     inkscape:window-maximized="1"
     inkscape:current-layer="g10" /><g
     id="g10"
     inkscape:groupmode="layer"
     inkscape:label="wind"
     transform="matrix(1.3333333,0,0,-1.3333333,22.313085,167.19994)"><g
       transform="matrix(1,0,0,-1,0,125.40019)"
       id="g14"><path
         inkscape:connector-curvature="0"
         id="path16"
         style="fill:none;stroke:#004e26;stroke-width:5.85375023;stroke-linecap:round;stroke-linejoin:round;stroke-miterlimit:4;stroke-dasharray:none;stroke-opacity:1"
         d="m 31.801,94.301 25.683,0.035" /></g><g
       transform="matrix(1,-0.00134647,-0.00134647,-1,0,125.40019)"
       id="g18"><path
         inkscape:connector-curvature="0"
         id="path20"
         style="fill:#004e26;fill-opacity:1;fill-rule:evenodd;stroke:#004e26;stroke-width:1.56099904;stroke-linecap:butt;stroke-linejoin:miter;stroke-miterlimit:4;stroke-dasharray:none;stroke-opacity:1"
         d="M 38.682,94.257 28.557,100.11 V 88.403 Z" /></g><g
       transform="matrix(1,0,0,-1,0,125.40019)"
       id="g22"><path
         inkscape:connector-curvature="0"
         id="path24"
         style="fill:none;stroke:#00dd24;stroke-width:5.85375023;stroke-linecap:round;stroke-linejoin:round;stroke-miterlimit:4;stroke-dasharray:none;stroke-opacity:1"
         d="m 34.352,71.48 23.125,0.036" /></g><g
       transform="matrix(1,-0.00149567,-0.00149567,-1,0,125.40019)"
       id="g26"><path
         inkscape:connector-curvature="0"
         id="path28"
         style="fill:#00dd24;fill-opacity:1;fill-rule:evenodd;stroke:#00dd24;stroke-width:1.56099796;stroke-linecap:butt;stroke-linejoin:miter;stroke-miterlimit:4;stroke-dasharray:none;stroke-opacity:1"
         d="M 28.606,65.578 28.608,77.285 40.315,77.283 40.313,65.576 Z" /></g><g
       transform="matrix(1,0,0,-1,0,125.40019)"
       id="g30"><path
         inkscape:connector-curvature="0"
         id="path32"
         style="fill:none;stroke:#002c6c;stroke-width:5.85375023;stroke-linecap:round;stroke-linejoin:round;stroke-miterlimit:4;stroke-dasharray:none;stroke-opacity:1"
         d="m 32.633,27.539 25.683,0.035" /></g><g
       transform="matrix(1,-0.00134647,-0.00134647,-1,0,125.40019)"
       id="g34"><path
         inkscape:connector-curvature="0"
         id="path36"
         style="fill:#002c6c;fill-opacity:1;fill-rule:evenodd;stroke:#002c6c;stroke-width:1.56099904;stroke-linecap:butt;stroke-linejoin:miter;stroke-miterlimit:4;stroke-dasharray:none;stroke-opacity:1"
         d="m 38.404,27.495 c 10e-4,3.235 -2.621,5.855 -5.851,5.856 -3.231,0 -5.855,-2.621 -5.856,-5.856 0,-3.23 2.625,-5.851 5.856,-5.851 3.23,-10e-4 5.855,2.621 5.851,5.851 z" /></g><g
       transform="matrix(1,0,0,-0.996346,0,125.40019)"
       id="g38"><path
         inkscape:connector-curvature="0"
         id="path40"
         style="fill:#00000b;fill-opacity:1;fill-rule:evenodd;stroke:#000000;stroke-width:0.75137401;stroke-linecap:butt;stroke-linejoin:miter;stroke-miterlimit:4;stroke-dasharray:none;stroke-opacity:1"
         d="m 48.023,77.525 c -0.91,-1.548 7.149,-6.912 7.149,-6.912 0,0 0.613,-9.66 2.41,-9.644 1.793,0.012 2.41,9.644 2.41,9.644 0,0 8.059,5.364 7.149,6.912 -0.911,1.545 -9.559,-2.736 -9.559,-2.736 0,0 -8.648,4.281 -9.559,2.736 z" /></g><g
       transform="matrix(1,0,0,-0.996346,0,125.40019)"
       id="g42"><path
         inkscape:connector-curvature="0"
         id="path44"
         style="fill:#00000b;fill-opacity:1;fill-rule:nonzero;stroke:#fffffb;stroke-width:1.32052505;stroke-linecap:round;stroke-linejoin:round;stroke-miterlimit:4;stroke-dasharray:none;stroke-opacity:1"
         d="m 59.461,72.166 c 0,1.11 -0.902,2.007 -2.012,2.007 -1.109,0 -2.008,-0.897 -2.008,-2.007 0,-1.109 0.899,-2.011 2.008,-2.011 1.11,0 2.012,0.902 2.012,2.011 z" /></g><g
       transform="matrix(1,0,0,-0.996346,0,125.40019)"
       id="g46"><path
         inkscape:connector-curvature="0"
         id="path48"
         style="fill:#00000b;fill-opacity:1;fill-rule:evenodd;stroke:#000000;stroke-width:0.75137401;stroke-linecap:butt;stroke-linejoin:miter;stroke-miterlimit:4;stroke-dasharray:none;stroke-opacity:1"
         d="m 48.059,100.041 c -0.911,-1.548 7.144,-6.912 7.144,-6.912 0,0 0.617,-9.66 2.414,-9.644 1.793,0.011 2.41,9.644 2.41,9.644 0,0 8.055,5.364 7.149,6.912 -0.91,1.545 -9.559,-2.736 -9.559,-2.736 0,0 -8.652,4.281 -9.558,2.736 z" /></g><g
       transform="matrix(1,0,0,-0.996346,0,125.40019)"
       id="g50"><path
         inkscape:connector-curvature="0"
         id="path52"
         style="fill:#00000b;fill-opacity:1;fill-rule:nonzero;stroke:#fffffb;stroke-width:1.32052505;stroke-linecap:round;stroke-linejoin:round;stroke-miterlimit:4;stroke-dasharray:none;stroke-opacity:1"
         d="m 59.492,94.682 c 0,1.109 -0.898,2.007 -2.008,2.007 -1.109,0 -2.011,-0.898 -2.011,-2.007 0,-1.11 0.902,-2.011 2.011,-2.011 1.11,0 2.008,0.901 2.008,2.011 z" /></g><g
       transform="matrix(1,0,0,-0.996346,0,125.40019)"
       id="g54"><path
         inkscape:connector-curvature="0"
         id="path56"
         style="fill:#00000b;fill-opacity:1;fill-rule:evenodd;stroke:#000000;stroke-width:0.75137401;stroke-linecap:butt;stroke-linejoin:miter;stroke-miterlimit:4;stroke-dasharray:none;stroke-opacity:1"
         d="m 48.859,33.235 c -0.906,-1.549 7.149,-6.912 7.149,-6.912 0,0 0.617,-9.661 2.41,-9.645 1.797,0.012 2.414,9.645 2.414,9.645 0,0 8.055,5.363 7.145,6.912 -0.907,1.544 -9.559,-2.737 -9.559,-2.737 0,0 -8.648,4.281 -9.559,2.737 z" /></g><g
       transform="matrix(1,0,0,-0.996346,0,125.40019)"
       id="g58"><path
         inkscape:connector-curvature="0"
         id="path60"
         style="fill:#00000b;fill-opacity:1;fill-rule:nonzero;stroke:#fffffb;stroke-width:1.32052505;stroke-linecap:round;stroke-linejoin:round;stroke-miterlimit:4;stroke-dasharray:none;stroke-opacity:1"
         d="m 60.297,27.875 c 0,1.11 -0.899,2.008 -2.008,2.008 -1.109,0 -2.012,-0.898 -2.012,-2.008 0,-1.109 0.903,-2.011 2.012,-2.011 1.109,0 2.008,0.902 2.008,2.011 z" /></g><g
       transform="matrix(1,0,0,-0.996346,0,125.40019)"
       id="g62"><path
         inkscape:connector-curvature="0"
         id="path64"
         style="fill:#00000b;fill-opacity:1;fill-rule:evenodd;stroke:#000000;stroke-width:0.75137401;stroke-linecap:butt;stroke-linejoin:miter;stroke-miterlimit:4;stroke-dasharray:none;stroke-opacity:1"
         d="m 78.059,21.402 c -0.911,-1.544 7.144,-6.908 7.144,-6.908 0,0 0.617,-9.66 2.414,-9.644 1.793,0.012 2.41,9.644 2.41,9.644 0,0 8.055,5.364 7.149,6.908 -0.91,1.549 -9.559,-2.732 -9.559,-2.732 0,0 -8.652,4.281 -9.558,2.732 z" /></g><g
       transform="matrix(1,0,0,-0.996346,0,125.40019)"
       id="g66"><path
         inkscape:connector-curvature="0"
         id="path68"
         style="fill:#00000b;fill-opacity:1;fill-rule:nonzero;stroke:#fffffb;stroke-width:1.32052505;stroke-linecap:round;stroke-linejoin:round;stroke-miterlimit:4;stroke-dasharray:none;stroke-opacity:1"
         d="m 89.492,16.047 c 0,1.109 -0.898,2.007 -2.008,2.007 -1.109,0 -2.011,-0.898 -2.011,-2.007 0,-1.11 0.902,-2.011 2.011,-2.011 1.11,0 2.008,0.901 2.008,2.011 z" /></g><g
       transform="matrix(1,0,0,-0.996346,0,125.40019)"
       id="g70"><path
         inkscape:connector-curvature="0"
         id="path72"
         style="fill:#00000b;fill-opacity:1;fill-rule:evenodd;stroke:#000000;stroke-width:0.75137401;stroke-linecap:butt;stroke-linejoin:miter;stroke-miterlimit:4;stroke-dasharray:none;stroke-opacity:1"
         d="m 78.191,55.413 c -0.91,-1.548 7.149,-6.912 7.149,-6.912 0,0 0.617,-9.656 2.41,-9.644 1.793,0.012 2.41,9.644 2.41,9.644 0,0 8.059,5.364 7.149,6.912 -0.911,1.545 -9.559,-2.736 -9.559,-2.736 0,0 -8.648,4.281 -9.559,2.736 z" /></g><g
       transform="matrix(1,0,0,-0.996346,0,125.40019)"
       id="g74"><path
         inkscape:connector-curvature="0"
         id="path76"
         style="fill:#00000b;fill-opacity:1;fill-rule:nonzero;stroke:#fffffb;stroke-width:1.32052505;stroke-linecap:round;stroke-linejoin:round;stroke-miterlimit:4;stroke-dasharray:none;stroke-opacity:1"
         d="m 89.629,50.054 c 0,1.11 -0.902,2.011 -2.012,2.011 -1.109,0 -2.008,-0.901 -2.008,-2.011 0,-1.11 0.899,-2.011 2.008,-2.011 1.11,0 2.012,0.901 2.012,2.011 z" /></g><g
       transform="matrix(1,0,0,-0.996346,0,125.40019)"
       id="g78"><path
         inkscape:connector-curvature="0"
         id="path80"
         style="fill:#00000b;fill-opacity:1;fill-rule:evenodd;stroke:#000000;stroke-width:0.75137401;stroke-linecap:butt;stroke-linejoin:miter;stroke-miterlimit:4;stroke-dasharray:none;stroke-opacity:1"
         d="m 78.191,89.15 c -0.91,-1.545 7.149,-6.908 7.149,-6.908 0,0 0.617,-9.66 2.41,-9.645 1.793,0.012 2.41,9.645 2.41,9.645 0,0 8.059,5.363 7.149,6.908 -0.911,1.549 -9.559,-2.733 -9.559,-2.733 0,0 -8.648,4.282 -9.559,2.733 z" /></g><g
       transform="matrix(1,0,0,-0.996346,0,125.40019)"
       id="g82"><path
         inkscape:connector-curvature="0"
         id="path84"
         style="fill:#00000b;fill-opacity:1;fill-rule:nonzero;stroke:#fffffb;stroke-width:1.32052505;stroke-linecap:round;stroke-linejoin:round;stroke-miterlimit:4;stroke-dasharray:none;stroke-opacity:1"
         d="m 89.629,83.794 c 0,1.11 -0.902,2.008 -2.012,2.008 -1.109,0 -2.008,-0.898 -2.008,-2.008 0,-1.109 0.899,-2.011 2.008,-2.011 1.11,0 2.012,0.902 2.012,2.011 z" /></g><g
       transform="matrix(1,0,0,-0.996346,0,125.40019)"
       id="g86"><path
         inkscape:connector-curvature="0"
         id="path88"
         style="fill:#00000b;fill-opacity:1;fill-rule:evenodd;stroke:#000000;stroke-width:0.75137401;stroke-linecap:butt;stroke-linejoin:miter;stroke-miterlimit:4;stroke-dasharray:none;stroke-opacity:1"
         d="m 77.789,123.024 c -0.91,-1.545 7.149,-6.908 7.149,-6.908 0,0 0.617,-9.661 2.41,-9.645 1.797,0.012 2.41,9.645 2.41,9.645 0,0 8.058,5.363 7.148,6.908 -0.91,1.548 -9.558,-2.733 -9.558,-2.733 0,0 -8.649,4.281 -9.559,2.733 z" /></g><g
       transform="matrix(1,0,0,-0.996346,0,125.40019)"
       id="g90"><path
         inkscape:connector-curvature="0"
         id="path92"
         style="fill:#00000b;fill-opacity:1;fill-rule:nonzero;stroke:#fffffb;stroke-width:1.32052505;stroke-linecap:round;stroke-linejoin:round;stroke-miterlimit:4;stroke-dasharray:none;stroke-opacity:1"
         d="m 89.227,117.668 c 0,1.11 -0.903,2.008 -2.012,2.008 -1.11,0 -2.008,-0.898 -2.008,-2.008 0,-1.109 0.898,-2.011 2.008,-2.011 1.109,0 2.012,0.902 2.012,2.011 z" /></g><g
       transform="matrix(1,0,0,-0.996346,0,125.40019)"
       id="g94"><path
         inkscape:connector-curvature="0"
         id="path96"
         style="fill:#00000b;fill-opacity:1;fill-rule:evenodd;stroke:#000000;stroke-width:0.75137401;stroke-linecap:butt;stroke-linejoin:miter;stroke-miterlimit:4;stroke-dasharray:none;stroke-opacity:1"
         d="m 123.594,122.487 c -0.91,-1.545 7.148,-6.908 7.148,-6.908 0,0 0.613,-9.661 2.41,-9.649 1.793,0.016 2.41,9.649 2.41,9.649 0,0 8.055,5.363 7.149,6.908 -0.91,1.548 -9.559,-2.733 -9.559,-2.733 0,0 -8.652,4.281 -9.558,2.733 z" /></g><g
       transform="matrix(1,0,0,-0.996346,0,125.40019)"
       id="g98"><path
         inkscape:connector-curvature="0"
         id="path100"
         style="fill:#00000b;fill-opacity:1;fill-rule:nonzero;stroke:#fffffb;stroke-width:1.32052505;stroke-linecap:round;stroke-linejoin:round;stroke-miterlimit:4;stroke-dasharray:none;stroke-opacity:1"
         d="m 135.027,117.131 c 0,1.11 -0.898,2.007 -2.007,2.007 -1.11,0 -2.008,-0.897 -2.008,-2.007 0,-1.109 0.898,-2.011 2.008,-2.011 1.109,0 2.007,0.902 2.007,2.011 z" /></g><g
       transform="matrix(1,0,0,-0.996346,0,125.40019)"
       id="g102"><path
         inkscape:connector-curvature="0"
         id="path104"
         style="fill:#00000b;fill-opacity:1;fill-rule:evenodd;stroke:#000000;stroke-width:0.75137401;stroke-linecap:butt;stroke-linejoin:miter;stroke-miterlimit:4;stroke-dasharray:none;stroke-opacity:1"
         d="m 123.461,89.15 c -0.91,-1.545 7.144,-6.908 7.144,-6.908 0,0 0.618,-9.66 2.415,-9.645 1.792,0.012 2.41,9.645 2.41,9.645 0,0 8.054,5.363 7.144,6.908 -0.906,1.549 -9.554,-2.733 -9.554,-2.733 0,0 -8.653,4.282 -9.559,2.733 z" /></g><g
       transform="matrix(1,0,0,-0.996346,0,125.40019)"
       id="g106"><path
         inkscape:connector-curvature="0"
         id="path108"
         style="fill:#00000b;fill-opacity:1;fill-rule:nonzero;stroke:#fffffb;stroke-width:1.32052505;stroke-linecap:round;stroke-linejoin:round;stroke-miterlimit:4;stroke-dasharray:none;stroke-opacity:1"
         d="m 134.895,83.794 c 0,1.11 -0.899,2.008 -2.008,2.008 -1.11,0 -2.012,-0.898 -2.012,-2.008 0,-1.109 0.902,-2.011 2.012,-2.011 1.109,0 2.008,0.902 2.008,2.011 z" /></g><g
       transform="matrix(1,0,0,-0.996346,0,125.40019)"
       id="g110"><path
         inkscape:connector-curvature="0"
         id="path112"
         style="fill:#00000b;fill-opacity:1;fill-rule:evenodd;stroke:#000000;stroke-width:0.75137401;stroke-linecap:butt;stroke-linejoin:miter;stroke-miterlimit:4;stroke-dasharray:none;stroke-opacity:1"
         d="m 123.594,54.739 c -0.91,-1.545 7.148,-6.908 7.148,-6.908 0,0 0.613,-9.66 2.41,-9.649 1.793,0.016 2.41,9.649 2.41,9.649 0,0 8.055,5.363 7.149,6.908 -0.91,1.549 -9.559,-2.733 -9.559,-2.733 0,0 -8.652,4.282 -9.558,2.733 z" /></g><g
       transform="matrix(1,0,0,-0.996346,0,125.40019)"
       id="g114"><path
         inkscape:connector-curvature="0"
         id="path116"
         style="fill:#00000b;fill-opacity:1;fill-rule:nonzero;stroke:#fffffb;stroke-width:1.32052505;stroke-linecap:round;stroke-linejoin:round;stroke-miterlimit:4;stroke-dasharray:none;stroke-opacity:1"
         d="m 135.027,49.384 c 0,1.109 -0.898,2.007 -2.007,2.007 -1.11,0 -2.008,-0.898 -2.008,-2.007 0,-1.11 0.898,-2.012 2.008,-2.012 1.109,0 2.007,0.902 2.007,2.012 z" /></g><g
       transform="matrix(1,0,0,-1,0,125.40019)"
       id="g118"><path
         inkscape:connector-curvature="0"
         id="path120"
         style="fill:none;stroke:#0072ff;stroke-width:5.85375023;stroke-linecap:butt;stroke-linejoin:round;stroke-miterlimit:4;stroke-dasharray:5.85375, 5.85375;stroke-dashoffset:0;stroke-opacity:1"
         d="m 58.316,27.574 29.168,-11.586 45.078,0.035" /></g><g
       transform="matrix(1,0,0,-1,0,125.40019)"
       id="g122"><path
         inkscape:connector-curvature="0"
         id="path124"
         style="fill:none;stroke:#008782;stroke-width:5.85375023;stroke-linecap:round;stroke-linejoin:round;stroke-miterlimit:4;stroke-dasharray:17.56125, 5.85375;stroke-dashoffset:0;stroke-opacity:1"
         d="m 58.316,27.574 29.735,21.781 44.89,-0.187 M 88.051,49.355 57.75,71.516" /></g><g
       transform="matrix(1,0,0,-1,0,125.40019)"
       id="g126"><path
         inkscape:connector-curvature="0"
         id="path128"
         style="fill:none;stroke:#008a35;stroke-width:5.85354424;stroke-linecap:butt;stroke-linejoin:miter;stroke-miterlimit:4;stroke-dasharray:17.560631, 5.853544;stroke-dashoffset:0;stroke-opacity:1"
         d="m 57.75,71.516 30.301,11.933 45.078,-0.187 M 88.051,83.449 57.484,94.336" /></g><g
       transform="matrix(1,0,0,-1,0,125.40019)"
       id="g130"><path
         inkscape:connector-curvature="0"
         id="path132"
         style="fill:none;stroke:#98de7e;stroke-width:5.85375023;stroke-linecap:round;stroke-linejoin:miter;stroke-miterlimit:4;stroke-dasharray:5.85375, 5.85375;stroke-dashoffset:0;stroke-opacity:1"
         d="m 57.672,94.523 30.191,22.641 45.457,-0.191" /></g><g
       transform="matrix(1,0,0,-0.996018,0,125.40019)"
       id="g134"><path
         inkscape:connector-curvature="0"
         id="path136"
         style="fill:#00000b;fill-opacity:1;fill-rule:evenodd;stroke:#000000;stroke-width:0.75149798;stroke-linecap:butt;stroke-linejoin:miter;stroke-miterlimit:4;stroke-dasharray:none;stroke-opacity:1"
         d="m 74.988,56.981 c -1.261,-2.145 9.907,-9.577 9.907,-9.577 0,0 0.851,-13.39 3.339,-13.37 2.489,0.02 3.344,13.37 3.344,13.37 0,0 11.164,7.432 9.906,9.577 -1.261,2.145 -13.25,-3.789 -13.25,-3.789 0,0 -11.988,5.934 -13.246,3.789 z" /></g><g
       transform="matrix(1.2474105,0,0,-1.2424518,-21.784739,137.6116)"
       id="g138"
       style="fill:#ffffff;fill-opacity:1;stroke-width:1.05849445;stroke-miterlimit:4;stroke-dasharray:none"><path
         inkscape:connector-curvature="0"
         id="path140"
         style="fill:#ffffff;fill-opacity:1;fill-rule:nonzero;stroke:#fffffb;stroke-width:1.05849445;stroke-linecap:round;stroke-linejoin:round;stroke-miterlimit:4;stroke-dasharray:none;stroke-opacity:1"
         d="m 90.836,49.553 c 0,1.541 -1.246,2.784 -2.785,2.784 -1.535,0 -2.785,-1.243 -2.785,-2.784 0,-1.538 1.25,-2.785 2.785,-2.785 1.539,0 2.785,1.247 2.785,2.785 z" /></g><g
       transform="matrix(1,0,0,-0.996018,0,125.40019)"
       id="g142"><path
         inkscape:connector-curvature="0"
         id="path144"
         style="fill:#00000b;fill-opacity:1;fill-rule:evenodd;stroke:#000000;stroke-width:0.75149798;stroke-linecap:butt;stroke-linejoin:miter;stroke-miterlimit:4;stroke-dasharray:none;stroke-opacity:1"
         d="m 119.875,56.789 c -1.258,-2.146 9.906,-9.578 9.906,-9.578 0,0 0.856,-13.385 3.344,-13.365 2.488,0.015 3.34,13.365 3.34,13.365 0,0 11.168,7.432 9.906,9.578 C 145.113,58.934 133.125,53 133.125,53 c 0,0 -11.988,5.934 -13.25,3.789 z" /></g><g
       transform="matrix(1.247402,0,0,-1.2424518,-32.889987,137.56527)"
       id="g146"
       style="fill:#ffffff;fill-opacity:1;stroke-width:1.05849802;stroke-miterlimit:4;stroke-dasharray:none"><path
         inkscape:connector-curvature="0"
         id="path148"
         style="fill:#ffffff;fill-opacity:1;fill-rule:nonzero;stroke:#fffffb;stroke-width:1.05849802;stroke-linecap:round;stroke-linejoin:round;stroke-miterlimit:4;stroke-dasharray:none;stroke-opacity:1"
         d="m 135.727,49.365 c 0,1.537 -1.247,2.784 -2.786,2.784 -1.539,0 -2.785,-1.247 -2.785,-2.784 0,-1.538 1.246,-2.785 2.785,-2.785 1.539,0 2.786,1.247 2.786,2.785 z" /></g><g
       transform="matrix(1,0,0,-0.996018,0,125.40019)"
       id="g150"><path
         inkscape:connector-curvature="0"
         id="path152"
         style="fill:#00000b;fill-opacity:1;fill-rule:evenodd;stroke:#000000;stroke-width:0.75149798;stroke-linecap:butt;stroke-linejoin:miter;stroke-miterlimit:4;stroke-dasharray:none;stroke-opacity:1"
         d="m 119.496,23.512 c -1.258,-2.146 9.906,-9.578 9.906,-9.578 0,0 0.856,-13.385 3.344,-13.369 2.488,0.019 3.34,13.369 3.34,13.369 0,0 11.168,7.432 9.906,9.578 -1.258,2.145 -13.246,-3.789 -13.246,-3.789 0,0 -11.988,5.934 -13.25,3.789 z" /></g><g
       transform="matrix(1.247402,0,0,-1.2424179,-32.796222,129.36365)"
       id="g154"
       style="fill:#ffffff;fill-opacity:1;stroke-width:1.05851245;stroke-miterlimit:4;stroke-dasharray:none"><path
         inkscape:connector-curvature="0"
         id="path156"
         style="fill:#ffffff;fill-opacity:1;fill-rule:nonzero;stroke:#fffffb;stroke-width:1.05851245;stroke-linecap:round;stroke-linejoin:round;stroke-miterlimit:4;stroke-dasharray:none;stroke-opacity:1"
         d="m 135.348,16.088 c 0,1.537 -1.246,2.784 -2.785,2.784 -1.54,0 -2.786,-1.247 -2.786,-2.784 0,-1.542 1.246,-2.789 2.786,-2.789 1.539,0 2.785,1.247 2.785,2.789 z" /></g><g
       transform="matrix(1,0,0,-0.996018,0,125.40019)"
       id="g158"><path
         inkscape:connector-curvature="0"
         id="path160"
         style="fill:#00000b;fill-opacity:1;fill-rule:evenodd;stroke:#000000;stroke-width:0.75149798;stroke-linecap:butt;stroke-linejoin:miter;stroke-miterlimit:4;stroke-dasharray:none;stroke-opacity:1"
         d="m 74.418,23.323 c -1.258,-2.145 9.906,-9.581 9.906,-9.581 0,0 0.856,-13.385 3.344,-13.366 2.488,0.016 3.34,13.366 3.34,13.366 0,0 11.168,7.436 9.906,9.581 -1.258,2.146 -13.246,-3.792 -13.246,-3.792 0,0 -11.988,5.938 -13.25,3.792 z" /></g><g
       transform="matrix(1.247402,0,0,-1.2424518,-21.643837,129.31738)"
       id="g162"
       style="fill:#ffffff;fill-opacity:1;stroke-width:1.05849802;stroke-miterlimit:4;stroke-dasharray:none"><path
         inkscape:connector-curvature="0"
         id="path164"
         style="fill:#ffffff;fill-opacity:1;fill-rule:nonzero;stroke:#fffffb;stroke-width:1.05849802;stroke-linecap:round;stroke-linejoin:round;stroke-miterlimit:4;stroke-dasharray:none;stroke-opacity:1"
         d="m 90.27,15.895 c 0,1.538 -1.247,2.785 -2.786,2.785 -1.539,0 -2.785,-1.247 -2.785,-2.785 0,-1.537 1.246,-2.784 2.785,-2.784 1.539,0 2.786,1.247 2.786,2.784 z" /></g><g
       transform="matrix(1,0,0,-0.996018,0,125.40019)"
       id="g166"><path
         inkscape:connector-curvature="0"
         id="path168"
         style="fill:#00000b;fill-opacity:1;fill-rule:evenodd;stroke:#000000;stroke-width:0.75149798;stroke-linecap:butt;stroke-linejoin:miter;stroke-miterlimit:4;stroke-dasharray:none;stroke-opacity:1"
         d="m 45.25,35.112 c -1.258,-2.145 9.906,-9.577 9.906,-9.577 0,0 0.856,-13.389 3.344,-13.369 2.488,0.019 3.34,13.369 3.34,13.369 0,0 11.168,7.432 9.906,9.577 C 70.488,37.258 58.5,31.324 58.5,31.324 c 0,0 -11.988,5.934 -13.25,3.788 z" /></g><g
       transform="matrix(1.247402,0,0,-1.2424518,-14.427616,132.22259)"
       id="g170"
       style="fill:#ffffff;fill-opacity:1;stroke-width:1.05849802;stroke-miterlimit:4;stroke-dasharray:none"><path
         inkscape:connector-curvature="0"
         id="path172"
         style="fill:#ffffff;fill-opacity:1;fill-rule:nonzero;stroke:#fffffb;stroke-width:1.05849802;stroke-linecap:round;stroke-linejoin:round;stroke-miterlimit:4;stroke-dasharray:none;stroke-opacity:1"
         d="m 61.102,27.684 c 0,1.538 -1.247,2.785 -2.786,2.785 -1.539,0 -2.785,-1.247 -2.785,-2.785 0,-1.537 1.246,-2.784 2.785,-2.784 1.539,0 2.786,1.247 2.786,2.784 z" /></g><g
       transform="matrix(1,0,0,-0.996018,0,125.40019)"
       id="g174"><path
         inkscape:connector-curvature="0"
         id="path176"
         style="fill:#00000b;fill-opacity:1;fill-rule:evenodd;stroke:#000000;stroke-width:0.75149798;stroke-linecap:butt;stroke-linejoin:miter;stroke-miterlimit:4;stroke-dasharray:none;stroke-opacity:1"
         d="m 44.684,79.23 c -1.262,-2.146 9.906,-9.578 9.906,-9.578 0,0 0.855,-13.389 3.34,-13.369 2.488,0.019 3.343,13.369 3.343,13.369 0,0 11.165,7.432 9.907,9.578 -1.262,2.145 -13.25,-3.789 -13.25,-3.789 0,0 -11.989,5.934 -13.246,3.789 z" /></g><g
       transform="matrix(1.2474445,0,0,-1.2424179,-14.289427,143.09256)"
       id="g178"
       style="fill:#ffffff;fill-opacity:1;stroke-width:1.05849445;stroke-miterlimit:4;stroke-dasharray:none"><path
         inkscape:connector-curvature="0"
         id="path180"
         style="fill:#ffffff;fill-opacity:1;fill-rule:nonzero;stroke:#fffffb;stroke-width:1.05849445;stroke-linecap:round;stroke-linejoin:round;stroke-miterlimit:4;stroke-dasharray:none;stroke-opacity:1"
         d="m 60.531,71.802 c 0,1.541 -1.246,2.788 -2.781,2.788 -1.539,0 -2.785,-1.247 -2.785,-2.788 0,-1.538 1.246,-2.785 2.785,-2.785 1.535,0 2.781,1.247 2.781,2.785 z" /></g><g
       transform="matrix(1,0,0,-0.996018,0,125.40019)"
       id="g182"><path
         inkscape:connector-curvature="0"
         id="path184"
         style="fill:#00000b;fill-opacity:1;fill-rule:evenodd;stroke:#000000;stroke-width:0.75149798;stroke-linecap:butt;stroke-linejoin:miter;stroke-miterlimit:4;stroke-dasharray:none;stroke-opacity:1"
         d="m 44.609,102.329 c -1.261,-2.145 9.907,-9.581 9.907,-9.581 0,0 0.851,-13.385 3.339,-13.365 2.489,0.015 3.344,13.365 3.344,13.365 0,0 11.164,7.436 9.906,9.581 -1.261,2.146 -13.25,-3.792 -13.25,-3.792 0,0 -11.988,5.938 -13.246,3.792 z" /></g><g
       transform="matrix(1.2474105,0,0,-1.2424518,-14.268656,148.78712)"
       id="g186"
       style="stroke-width:0.80165803"><path
         inkscape:connector-curvature="0"
         id="path188"
         style="fill:#ffffff;fill-opacity:1;fill-rule:nonzero;stroke:#fffffb;stroke-width:1.05849445;stroke-linecap:round;stroke-linejoin:round;stroke-miterlimit:4;stroke-dasharray:none;stroke-opacity:1"
         d="m 60.457,94.901 c 0,1.538 -1.246,2.785 -2.785,2.785 -1.535,0 -2.785,-1.247 -2.785,-2.785 0,-1.537 1.25,-2.784 2.785,-2.784 1.539,0 2.785,1.247 2.785,2.784 z" /></g><g
       transform="matrix(1,0,0,-0.996018,0,125.40019)"
       id="g190"><path
         inkscape:connector-curvature="0"
         id="path192"
         style="fill:#00000b;fill-opacity:1;fill-rule:evenodd;stroke:#000000;stroke-width:0.75149798;stroke-linecap:butt;stroke-linejoin:miter;stroke-miterlimit:4;stroke-dasharray:none;stroke-opacity:1"
         d="m 74.988,91.211 c -1.261,-2.145 9.907,-9.581 9.907,-9.581 0,0 0.851,-13.386 3.339,-13.366 2.489,0.016 3.344,13.366 3.344,13.366 0,0 11.164,7.436 9.906,9.581 -1.261,2.145 -13.25,-3.793 -13.25,-3.793 0,0 -11.988,5.938 -13.246,3.793 z" /></g><g
       transform="matrix(1.2474105,0,0,-1.2424518,-21.784739,146.04703)"
       id="g194"
       style="fill:#ffffff;fill-opacity:1;stroke-width:1.05849445;stroke-miterlimit:4;stroke-dasharray:none"><path
         inkscape:connector-curvature="0"
         id="path196"
         style="fill:#ffffff;fill-opacity:1;fill-rule:nonzero;stroke:#fffffb;stroke-width:1.05849445;stroke-linecap:round;stroke-linejoin:round;stroke-miterlimit:4;stroke-dasharray:none;stroke-opacity:1"
         d="m 90.836,83.783 c 0,1.537 -1.246,2.784 -2.785,2.784 -1.535,0 -2.785,-1.247 -2.785,-2.784 0,-1.537 1.25,-2.785 2.785,-2.785 1.539,0 2.785,1.248 2.785,2.785 z" /></g><g
       transform="matrix(1,0,0,-0.996018,0,125.40019)"
       id="g198"><path
         inkscape:connector-curvature="0"
         id="path200"
         style="fill:#00000b;fill-opacity:1;fill-rule:evenodd;stroke:#000000;stroke-width:0.75149798;stroke-linecap:butt;stroke-linejoin:miter;stroke-miterlimit:4;stroke-dasharray:none;stroke-opacity:1"
         d="m 120.066,91.019 c -1.261,-2.146 9.907,-9.577 9.907,-9.577 0,0 0.851,-13.386 3.34,-13.37 2.488,0.019 3.343,13.37 3.343,13.37 0,0 11.164,7.431 9.907,9.577 -1.262,2.145 -13.25,-3.789 -13.25,-3.789 0,0 -11.989,5.934 -13.247,3.789 z" /></g><g
       transform="matrix(1.2474105,0,0,-1.2424179,-32.937508,145.99737)"
       id="g202"
       style="fill:#ffffff;fill-opacity:1;stroke-width:1.05850887;stroke-miterlimit:4;stroke-dasharray:none"><path
         inkscape:connector-curvature="0"
         id="path204"
         style="fill:#ffffff;fill-opacity:1;fill-rule:nonzero;stroke:#fffffb;stroke-width:1.05850887;stroke-linecap:round;stroke-linejoin:round;stroke-miterlimit:4;stroke-dasharray:none;stroke-opacity:1"
         d="m 135.914,83.595 c 0,1.537 -1.246,2.784 -2.785,2.784 -1.535,0 -2.785,-1.247 -2.785,-2.784 0,-1.542 1.25,-2.789 2.785,-2.789 1.539,0 2.785,1.247 2.785,2.789 z" /></g><g
       transform="matrix(1,0,0,-0.996018,0,125.40019)"
       id="g206"><path
         inkscape:connector-curvature="0"
         id="path208"
         style="fill:#00000b;fill-opacity:1;fill-rule:evenodd;stroke:#000000;stroke-width:0.75149798;stroke-linecap:butt;stroke-linejoin:miter;stroke-miterlimit:4;stroke-dasharray:none;stroke-opacity:1"
         d="m 120.254,124.868 c -1.258,-2.145 9.906,-9.577 9.906,-9.577 0,0 0.856,-13.389 3.344,-13.369 2.488,0.019 3.34,13.369 3.34,13.369 0,0 11.168,7.432 9.906,9.577 -1.258,2.146 -13.246,-3.788 -13.246,-3.788 0,0 -11.988,5.934 -13.25,3.788 z" /></g><g
       transform="matrix(1.2474105,0,0,-1.2424518,-32.984764,154.34149)"
       id="g210"
       style="fill:#ffffff;fill-opacity:1;stroke-width:1.05849445;stroke-miterlimit:4;stroke-dasharray:none"><path
         inkscape:connector-curvature="0"
         id="path212"
         style="fill:#ffffff;fill-opacity:1;fill-rule:nonzero;stroke:#fffffb;stroke-width:1.05849445;stroke-linecap:round;stroke-linejoin:round;stroke-miterlimit:4;stroke-dasharray:none;stroke-opacity:1"
         d="m 136.105,117.44 c 0,1.542 -1.246,2.785 -2.785,2.785 -1.539,0 -2.785,-1.243 -2.785,-2.785 0,-1.537 1.246,-2.784 2.785,-2.784 1.539,0 2.785,1.247 2.785,2.784 z" /></g><g
       transform="matrix(1,0,0,-0.996018,0,125.40019)"
       id="g214"><path
         inkscape:connector-curvature="0"
         id="path216"
         style="fill:#00000b;fill-opacity:1;fill-rule:evenodd;stroke:#000000;stroke-width:0.75149798;stroke-linecap:butt;stroke-linejoin:miter;stroke-miterlimit:4;stroke-dasharray:none;stroke-opacity:1"
         d="m 74.797,125.057 c -1.258,-2.146 9.906,-9.578 9.906,-9.578 0,0 0.856,-13.385 3.344,-13.365 2.488,0.015 3.34,13.365 3.34,13.365 0,0 11.168,7.432 9.906,9.578 -1.258,2.145 -13.246,-3.789 -13.246,-3.789 0,0 -11.988,5.934 -13.25,3.789 z" /></g><g
       transform="matrix(1.2474105,0,0,-1.2424518,-21.738226,154.38881)"
       id="g218"
       style="fill:#ffffff;fill-opacity:1;stroke-width:1.05849445;stroke-miterlimit:4;stroke-dasharray:none"><path
         inkscape:connector-curvature="0"
         id="path220"
         style="fill:#ffffff;fill-opacity:1;fill-rule:nonzero;stroke:#fffffb;stroke-width:1.05849445;stroke-linecap:round;stroke-linejoin:round;stroke-miterlimit:4;stroke-dasharray:none;stroke-opacity:1"
         d="m 90.648,117.633 c 0,1.537 -1.246,2.784 -2.785,2.784 -1.539,0 -2.785,-1.247 -2.785,-2.784 0,-1.538 1.246,-2.785 2.785,-2.785 1.539,0 2.785,1.247 2.785,2.785 z" /></g><g
       id="g1155"
       transform="translate(-16.737738)"><g
         id="g222"
         transform="matrix(1,0,0,-0.999482,0,125.40019)"><path
           d="m 24.867,119.038 c 0,0 -3.648,1.481 -8.254,1.493 -4.605,0.012 -6.183,-2.216 -9.636,-2.216 -3.454,0 -6.407,0.993 -6.407,0.993 v 2.403 c 0,0 2.953,-0.992 6.407,-0.992 3.453,0 5.031,2.231 9.636,2.22 4.606,-0.012 9.668,-1.505 9.668,-1.505"
           style="fill:#00000b;fill-opacity:1;fill-rule:evenodd;stroke:#000000;stroke-width:1.13415205;stroke-linecap:butt;stroke-linejoin:miter;stroke-miterlimit:4;stroke-dasharray:none;stroke-opacity:1"
           id="path224"
           inkscape:connector-curvature="0" /></g><g
         id="g226"
         transform="matrix(1,0,0,-0.999482,0,125.40019)"><path
           d="m 24.926,116.693 9.742,3.623 -9.824,3.713 z"
           style="fill:#00000b;fill-opacity:1;fill-rule:evenodd;stroke:#000000;stroke-width:1.13415205;stroke-linecap:square;stroke-linejoin:miter;stroke-miterlimit:4;stroke-dasharray:none;stroke-opacity:1"
           id="path228"
           inkscape:connector-curvature="0" /></g><text
         y="-15.297358"
         x="4.0934014"
         transform="scale(1.0002589,-0.9997412)"
         style="font-variant:normal;font-weight:bold;font-size:17.92638588px;font-family:'DejaVu Sans';-inkscape-font-specification:DejaVuSans-Bold;writing-mode:lr-tb;fill:#000000;fill-opacity:1;fill-rule:nonzero;stroke:none;stroke-width:0.9997412"
         id="text232"><tspan
           style="stroke-width:0.9997412"
           x="4.0934014"
           y="-15.297358"
           id="tspan230">W</tspan></text>
</g><text
       xml:space="preserve"
       style="font-style:normal;font-weight:normal;font-size:9px;line-height:125%;font-family:Sans;letter-spacing:0px;word-spacing:0px;fill:#000000;fill-opacity:1;stroke:none;stroke-width:0.75px;stroke-linecap:butt;stroke-linejoin:miter;stroke-opacity:1"
       x="84.61438"
       y="-106.37002"
       id="text1187"
       transform="scale(1,-1)"><tspan
         sodipodi:role="line"
         id="tspan1185"
         x="84.61438"
         y="-106.37002"
         style="font-size:9px;stroke-width:0.75px">1</tspan></text>
<text
       xml:space="preserve"
       style="font-style:normal;font-weight:normal;font-size:9px;line-height:125%;font-family:Sans;letter-spacing:0px;word-spacing:0px;fill:#000000;fill-opacity:1;stroke:none;stroke-width:0.75px;stroke-linecap:butt;stroke-linejoin:miter;stroke-opacity:1"
       x="129.86366"
       y="-106.12414"
       id="text1191"
       transform="scale(1,-1)"><tspan
         sodipodi:role="line"
         id="tspan1189"
         x="129.86366"
         y="-106.12414"
         style="font-size:9px;stroke-width:0.75px">2</tspan></text>
<text
       xml:space="preserve"
       style="font-style:normal;font-weight:normal;font-size:9px;line-height:125%;font-family:Sans;letter-spacing:0px;word-spacing:0px;fill:#000000;fill-opacity:1;stroke:none;stroke-width:0.75px;stroke-linecap:butt;stroke-linejoin:miter;stroke-opacity:1"
       x="55.624004"
       y="-94.545219"
       id="text1195"
       transform="scale(1,-1)"><tspan
         sodipodi:role="line"
         id="tspan1193"
         x="55.624004"
         y="-94.545219"
         style="font-size:9px;stroke-width:0.75px">3</tspan></text>
<text
       xml:space="preserve"
       style="font-style:normal;font-weight:normal;font-size:9px;line-height:125%;font-family:Sans;letter-spacing:0px;word-spacing:0px;fill:#000000;fill-opacity:1;stroke:none;stroke-width:0.75px;stroke-linecap:butt;stroke-linejoin:miter;stroke-opacity:1"
       x="84.914383"
       y="-72.833702"
       id="text1199"
       transform="scale(1,-1)"><tspan
         sodipodi:role="line"
         id="tspan1197"
         x="84.914383"
         y="-72.833702"
         style="stroke-width:0.75px">4</tspan></text>
<text
       xml:space="preserve"
       style="font-style:normal;font-weight:normal;font-size:9px;line-height:125%;font-family:Sans;letter-spacing:0px;word-spacing:0px;fill:#000000;fill-opacity:1;stroke:none;stroke-width:0.75px;stroke-linecap:butt;stroke-linejoin:miter;stroke-opacity:1"
       x="130.25334"
       y="-72.926453"
       id="text1203"
       transform="scale(1,-1)"><tspan
         sodipodi:role="line"
         id="tspan1201"
         x="130.25334"
         y="-72.926453"
         style="stroke-width:0.75px">5</tspan></text>
<text
       xml:space="preserve"
       style="font-style:normal;font-weight:normal;font-size:9px;line-height:125%;font-family:Sans;letter-spacing:0px;word-spacing:0px;fill:#000000;fill-opacity:1;stroke:none;stroke-width:0.75px;stroke-linecap:butt;stroke-linejoin:miter;stroke-opacity:1"
       x="54.775307"
       y="-50.639221"
       id="text1207"
       transform="scale(1,-1)"><tspan
         sodipodi:role="line"
         id="tspan1205"
         x="54.775307"
         y="-50.639221"
         style="stroke-width:0.75px">6</tspan></text>
<text
       xml:space="preserve"
       style="font-style:normal;font-weight:normal;font-size:9px;line-height:125%;font-family:Sans;letter-spacing:0px;word-spacing:0px;fill:#000000;fill-opacity:1;stroke:none;stroke-width:0.75px;stroke-linecap:butt;stroke-linejoin:miter;stroke-opacity:1"
       x="85.292648"
       y="-38.401421"
       id="text1211"
       transform="scale(1,-1)"><tspan
         sodipodi:role="line"
         id="tspan1209"
         x="85.292648"
         y="-38.401421"
         style="stroke-width:0.75px">7</tspan></text>
<text
       xml:space="preserve"
       style="font-style:normal;font-weight:normal;font-size:9px;line-height:125%;font-family:Sans;letter-spacing:0px;word-spacing:0px;fill:#000000;fill-opacity:1;stroke:none;stroke-width:0.75px;stroke-linecap:butt;stroke-linejoin:miter;stroke-opacity:1"
       x="130.27652"
       y="-38.950634"
       id="text1215"
       transform="scale(1,-1)"><tspan
         sodipodi:role="line"
         id="tspan1213"
         x="130.27652"
         y="-38.950634"
         style="stroke-width:0.75px">8</tspan></text>
<text
       xml:space="preserve"
       style="font-style:normal;font-weight:normal;font-size:9px;line-height:125%;font-family:Sans;letter-spacing:0px;word-spacing:0px;fill:#000000;fill-opacity:1;stroke:none;stroke-width:0.75px;stroke-linecap:butt;stroke-linejoin:miter;stroke-opacity:1"
       x="54.999229"
       y="-27.578722"
       id="text1219"
       transform="scale(1,-1)"><tspan
         sodipodi:role="line"
         id="tspan1217"
         x="54.999229"
         y="-27.578722"
         style="stroke-width:0.75px">9</tspan></text>
<text
       xml:space="preserve"
       style="font-style:normal;font-weight:normal;font-size:9px;line-height:125%;font-family:Sans;letter-spacing:0px;word-spacing:0px;fill:#000000;fill-opacity:1;stroke:none;stroke-width:0.75px;stroke-linecap:butt;stroke-linejoin:miter;stroke-opacity:1"
       x="130.73175"
       y="-5.9383979"
       id="text1223"
       transform="scale(1,-1)"><tspan
         sodipodi:role="line"
         id="tspan1221"
         x="130.73175"
         y="-5.9383979"
         style="stroke-width:0.75px">a</tspan></text>
<text
       xml:space="preserve"
       style="font-style:normal;font-weight:normal;font-size:9px;line-height:125%;font-family:Sans;letter-spacing:0px;word-spacing:0px;fill:#000000;fill-opacity:1;stroke:none;stroke-width:0.75px;stroke-linecap:butt;stroke-linejoin:miter;stroke-opacity:1"
       x="85.054329"
       y="-4.9276252"
       id="text1263"
       transform="scale(1,-1)"><tspan
         sodipodi:role="line"
         id="tspan1261"
         x="85.054329"
         y="-4.9276252"
         style="stroke-width:0.75px">0</tspan></text>
<text
       xml:space="preserve"
       style="font-style:normal;font-weight:normal;font-size:9px;line-height:125%;font-family:Sans;letter-spacing:0px;word-spacing:0px;fill:#000000;fill-opacity:1;stroke:none;stroke-width:0.75px;stroke-linecap:butt;stroke-linejoin:miter;stroke-opacity:1"
       x="-17.508251"
       y="-118.57085"
       id="text1267"
       transform="scale(1,-1)"><tspan
         sodipodi:role="line"
         id="tspan1265"
         x="-17.508251"
         y="-118.57085"
         style="stroke-width:0.75px">(1,2,3)</tspan><tspan
         sodipodi:role="line"
         x="-17.508251"
         y="-107.32085"
         style="stroke-width:0.75px"
         id="tspan1269">(3)</tspan><tspan
         sodipodi:role="line"
         x="-17.508251"
         y="-96.070854"
         style="stroke-width:0.75px"
         id="tspan1271">(3,4,5,6)</tspan><tspan
         sodipodi:role="line"
         x="-17.508251"
         y="-84.820854"
         style="stroke-width:0.75px"
         id="tspan1273">(6)</tspan><tspan
         sodipodi:role="line"
         x="-17.508251"
         y="-73.570854"
         style="stroke-width:0.75px"
         id="tspan1275">(6,7,8,9)</tspan><tspan
         sodipodi:role="line"
         x="-17.508251"
         y="-62.320858"
         style="stroke-width:0.75px"
         id="tspan1277">(9)</tspan><tspan
         sodipodi:role="line"
         x="-17.508251"
         y="-51.070858"
         style="stroke-width:0.75px"
         id="tspan1279">(9,0,a)</tspan></text>
</g></svg>